<?xml version="1.0" encoding="UTF-8" standalone="no"?>
<!DOCTYPE svg PUBLIC "-//W3C//DTD SVG 1.1//EN"
 "http://www.w3.org/Graphics/SVG/1.1/DTD/svg11.dtd">
<!-- Generated by graphviz version 3.0.0 (20220226.1711)
 -->
<!-- Title: dependencies Pages: 1 -->
<svg width="458pt" height="247pt"
 viewBox="0.00 0.00 458.00 246.80" xmlns="http://www.w3.org/2000/svg" xmlns:xlink="http://www.w3.org/1999/xlink">
<g id="graph0" class="graph" transform="scale(1 1) rotate(0) translate(4 242.8)">
<title>dependencies</title>
<polygon fill="white" stroke="transparent" points="-4,4 -4,-242.8 454,-242.8 454,4 -4,4"/>
<text text-anchor="middle" x="225" y="-8.2" font-family="sans-serif" font-size="14.00">dependencies</text>
<g id="clust1" class="cluster">
<title>cluster_AppModule</title>
<polygon fill="none" stroke="black" stroke-dasharray="1,5" points="8,-32.8 8,-230.8 442,-230.8 442,-32.8 8,-32.8"/>
</g>
<g id="clust5" class="cluster">
<title>cluster_AppModule_imports</title>
<polygon fill="none" stroke="black" points="290,-40.8 290,-92.8 434,-92.8 434,-40.8 290,-40.8"/>
</g>
<g id="clust7" class="cluster">
<title>cluster_AppModule_bootstrap</title>
<polygon fill="none" stroke="black" points="159,-170.8 159,-222.8 283,-222.8 283,-170.8 159,-170.8"/>
</g>
<g id="clust2" class="cluster">
<title>cluster_AppModule_declarations</title>
<polygon fill="none" stroke="black" points="16,-40.8 16,-92.8 282,-92.8 282,-40.8 16,-40.8"/>
</g>
<!-- AppComponent -->
<g id="node1" class="node">
<title>AppComponent</title>
<polygon fill="#ffffb3" stroke="black" points="273.94,-84.8 168.06,-84.8 168.06,-48.8 273.94,-48.8 273.94,-84.8"/>
<text text-anchor="middle" x="221" y="-62.6" font-family="Times,serif" font-size="14.00">AppComponent</text>
</g>
<!-- AppModule -->
<g id="node3" class="node">
<title>AppModule</title>
<polygon fill="#8dd3c7" stroke="black" points="262.66,-149.8 259.66,-153.8 238.66,-153.8 235.66,-149.8 179.34,-149.8 179.34,-113.8 262.66,-113.8 262.66,-149.8"/>
<text text-anchor="middle" x="221" y="-127.6" font-family="Times,serif" font-size="14.00">AppModule</text>
</g>
<!-- AppComponent&#45;&gt;AppModule -->
<g id="edge1" class="edge">
<title>AppComponent&#45;&gt;AppModule</title>
<path fill="none" stroke="black" d="M221,-84.91C221,-84.91 221,-103.79 221,-103.79"/>
<polygon fill="black" stroke="black" points="217.5,-103.79 221,-113.79 224.5,-103.79 217.5,-103.79"/>
</g>
<!-- CounterComponent -->
<g id="node2" class="node">
<title>CounterComponent</title>
<polygon fill="#ffffb3" stroke="black" points="150.44,-84.8 23.56,-84.8 23.56,-48.8 150.44,-48.8 150.44,-84.8"/>
<text text-anchor="middle" x="87" y="-62.6" font-family="Times,serif" font-size="14.00">CounterComponent</text>
</g>
<!-- CounterComponent&#45;&gt;AppModule -->
<g id="edge2" class="edge">
<title>CounterComponent&#45;&gt;AppModule</title>
<path fill="none" stroke="black" d="M87,-84.91C87,-104.14 87,-131.8 87,-131.8 87,-131.8 169.34,-131.8 169.34,-131.8"/>
<polygon fill="black" stroke="black" points="169.34,-135.3 179.34,-131.8 169.34,-128.3 169.34,-135.3"/>
</g>
<!-- AppComponent  -->
<g id="node5" class="node">
<title>AppComponent </title>
<polygon fill="#80b1d3" stroke="black" points="275.44,-214.8 166.56,-214.8 166.56,-178.8 275.44,-178.8 275.44,-214.8"/>
<text text-anchor="middle" x="221" y="-192.6" font-family="Times,serif" font-size="14.00">AppComponent </text>
</g>
<!-- AppModule&#45;&gt;AppComponent  -->
<g id="edge4" class="edge">
<title>AppModule&#45;&gt;AppComponent </title>
<path fill="none" stroke="black" stroke-dasharray="1,5" d="M221,-149.91C221,-149.91 221,-168.79 221,-168.79"/>
<polygon fill="black" stroke="black" points="217.5,-168.79 221,-178.79 224.5,-168.79 217.5,-168.79"/>
</g>
<!-- AppRoutingModule -->
<g id="node4" class="node">
<title>AppRoutingModule</title>
<polygon fill="#8dd3c7" stroke="black" points="426.28,-84.8 423.28,-88.8 402.28,-88.8 399.28,-84.8 297.72,-84.8 297.72,-48.8 426.28,-48.8 426.28,-84.8"/>
<text text-anchor="middle" x="362" y="-62.6" font-family="Times,serif" font-size="14.00">AppRoutingModule</text>
</g>
<!-- AppRoutingModule&#45;&gt;AppModule -->
<g id="edge3" class="edge">
<title>AppRoutingModule&#45;&gt;AppModule</title>
<path fill="none" stroke="black" d="M362,-84.91C362,-104.14 362,-131.8 362,-131.8 362,-131.8 272.92,-131.8 272.92,-131.8"/>
<polygon fill="black" stroke="black" points="272.92,-128.3 262.92,-131.8 272.92,-135.3 272.92,-128.3"/>
</g>
</g>
</svg>
